HIERARCHY
ROOT Hips
{
	OFFSET 0.000000 0.000000 0.000000
	CHANNELS 6 Xposition Yposition Zposition Xrotation Yrotation Zrotation
	JOINT LeftUpLeg_virtual
	{
		OFFSET 0.000000 0.000000 0.000000
		CHANNELS 3 Xrotation Yrotation Zrotation
		JOINT LeftUpLeg
		{
			OFFSET 11.394100 -6.187798 -0.413800
			CHANNELS 3 Xrotation Yrotation Zrotation
			JOINT LeftLeg
			{
				OFFSET 0.430247 -32.302673 3.732800
				CHANNELS 3 Xrotation Yrotation Zrotation
				JOINT LeftFoot
				{
					OFFSET -0.430247 -48.264931 -6.423300
					CHANNELS 3 Xrotation Yrotation Zrotation
					JOINT LeftToeBase
					{
						OFFSET 4.230900 -16.068199 23.438400
						CHANNELS 3 Xrotation Yrotation Zrotation
						JOINT LeftToe_End
						{
							OFFSET 4.510700 0.695400 19.974600
							CHANNELS 3 Xrotation Yrotation Zrotation
							End Site
							{
								OFFSET 0 0 0
							}
						}
					}
				}
			}
		}
	}
	JOINT RightUpLeg_virtual
	{
		OFFSET 0.000000 0.000000 0.000000
		CHANNELS 3 Xrotation Yrotation Zrotation
		JOINT RightUpLeg
		{
			OFFSET -11.333700 -6.187798 -0.413800
			CHANNELS 3 Xrotation Yrotation Zrotation
			JOINT RightLeg
			{
				OFFSET -0.430392 -32.302628 3.733000
				CHANNELS 3 Xrotation Yrotation Zrotation
				JOINT RightFoot
				{
					OFFSET 0.430392 -48.264973 -6.423500
					CHANNELS 3 Xrotation Yrotation Zrotation
					JOINT RightToeBase
					{
						OFFSET -4.230900 -16.068199 23.438400
						CHANNELS 3 Xrotation Yrotation Zrotation
						JOINT RightToe_End
						{
							OFFSET -4.510700 0.695400 19.974600
							CHANNELS 3 Xrotation Yrotation Zrotation
							End Site
							{
								OFFSET 0 0 0
							}
						}
					}
				}
			}
		}
	}
	JOINT Spine_virtual
	{
		OFFSET 0.000000 0.000000 0.000000
		CHANNELS 3 Xrotation Yrotation Zrotation
		JOINT Spine
		{
			OFFSET -0.002400 12.777504 0.315300
			CHANNELS 3 Xrotation Yrotation Zrotation
			JOINT Spine1
			{
				OFFSET -0.002067 5.816869 0.032633
				CHANNELS 3 Xrotation Yrotation Zrotation
				JOINT Spine1_split
				{
					OFFSET -0.002067 5.816869 0.032633
					CHANNELS 3 Xrotation Yrotation Zrotation
					JOINT Spine2
					{
						OFFSET -0.002067 5.816869 0.032633
						CHANNELS 3 Xrotation Yrotation Zrotation
						JOINT Neck_virtual
						{
							OFFSET 0.000000 0.000000 0.000000
							CHANNELS 3 Xrotation Yrotation Zrotation
							JOINT Neck
							{
								OFFSET -0.003700 21.199493 -0.826900
								CHANNELS 3 Xrotation Yrotation Zrotation
								JOINT Head
								{
									OFFSET 0.000000 20.442200 4.834800
									CHANNELS 3 Xrotation Yrotation Zrotation
									JOINT HeadTop_End
									{
										OFFSET 0.000000 34.668396 4.968400
										CHANNELS 3 Xrotation Yrotation Zrotation
										End Site
										{
											OFFSET 0 0 0
										}
									}
								}
							}
						}
						JOINT LeftShoulder_virtual
						{
							OFFSET 0.000000 0.000000 0.000000
							CHANNELS 3 Xrotation Yrotation Zrotation
							JOINT LeftShoulder
							{
								OFFSET 3.288150 8.794197 -1.372250
								CHANNELS 3 Xrotation Yrotation Zrotation
								JOINT LeftShoulder_split
								{
									OFFSET 3.288150 8.794197 -1.372250
									CHANNELS 3 Xrotation Yrotation Zrotation
									JOINT LeftArm
									{
										OFFSET 11.953299 -2.279007 -0.146200
										CHANNELS 3 Xrotation Yrotation Zrotation
										JOINT LeftForeArm
										{
											OFFSET 18.448900 0.000000 0.000000
											CHANNELS 3 Xrotation Yrotation Zrotation
											JOINT LeftHand
											{
												OFFSET 29.527798 0.000000 0.000000
												CHANNELS 3 Xrotation Yrotation Zrotation
												End Site
												{
													OFFSET 0 0 0
												}
											}
										}
									}
								}
							}
						}
						JOINT RightShoulder_virtual
						{
							OFFSET 0.000000 0.000000 0.000000
							CHANNELS 3 Xrotation Yrotation Zrotation
							JOINT RightShoulder
							{
								OFFSET -3.249400 8.794197 -1.372250
								CHANNELS 3 Xrotation Yrotation Zrotation
								JOINT RightShoulder_split
								{
									OFFSET -3.249400 8.794197 -1.372250
									CHANNELS 3 Xrotation Yrotation Zrotation
									JOINT RightArm
									{
										OFFSET -11.953299 -2.279007 -0.146200
										CHANNELS 3 Xrotation Yrotation Zrotation
										JOINT RightForeArm
										{
											OFFSET -18.448900 0.000000 0.000000
											CHANNELS 3 Xrotation Yrotation Zrotation
											JOINT RightHand
											{
												OFFSET -29.527802 0.000000 0.000000
												CHANNELS 3 Xrotation Yrotation Zrotation
												End Site
												{
													OFFSET 0 0 0
												}
											}
										}
									}
								}
							}
						}
					}
				}
			}
		}
	}
}
MOTION
Frames: 4
Frame Time: 0.03333333
-0.164053 98.988945 -1.266022 0.000000 0.000000 0.000000 0.686756 0.295232 0.271673 -16.371419 -2.965599 12.383049 20.802641 0.325046 -1.691006 -4.559958 11.977215 -5.920093 1.353278 0.003836 -1.665890 0.000000 0.000000 0.000000 1.408847 -1.218265 0.393575 -17.454637 -1.439052 -11.537223 22.073911 1.005481 -1.771422 -2.123861 -11.458993 10.552728 -2.654807 0.597419 0.937048 0.000000 0.000000 0.000000 1.863135 -1.383052 0.080995 3.271068 0.182577 1.298938 3.351613 0.102655 0.287958 0.728721 0.029662 0.209133 0.000000 0.000000 0.000000 2.724795 0.164174 0.153036 -2.949216 -0.319728 0.289443 -0.387609 -0.667370 1.151499 0.000000 0.000000 0.000000 2.592670 0.217441 0.275587 1.255936 9.759835 -13.219530 -0.562472 -2.204234 -0.611598 12.442023 -5.780431 -52.676092 -0.309370 -32.205025 0.836717 0.000000 0.000000 0.000000 2.651105 0.108217 0.352510 1.699277 -9.469489 11.590688 1.284829 2.004702 -1.857940 1.441314 18.010936 63.237901 2.065327 25.001609 0.276104 0.000000 0.000000 0.000000 
0.192405 98.846512 -1.687920 0.000000 0.000000 0.000000 0.777752 -0.103040 0.380351 -16.727299 -2.961814 12.086752 20.809831 0.384337 -1.786211 -4.866638 11.499057 -6.051868 1.134919 -0.003296 -1.588256 0.000000 0.000000 0.000000 1.424293 -1.332790 0.526922 -17.700946 -1.683506 -11.906730 22.081419 0.824002 -1.717312 -2.301680 -11.411634 10.467117 -2.755903 0.547683 0.914381 0.000000 0.000000 0.000000 1.906020 -1.599492 0.164426 3.325377 0.155051 1.290070 3.370403 0.057666 0.270156 0.928039 -0.232447 0.153001 0.000000 0.000000 0.000000 2.753199 0.151615 0.130091 -2.942725 -0.205679 0.177852 -0.247987 -0.580598 1.077684 0.000000 0.000000 0.000000 2.654025 0.174846 0.259158 1.241427 9.555821 -13.154269 -0.585273 -2.005782 -0.564254 12.260734 -6.254823 -52.899764 -0.299576 -32.378471 0.864700 0.000000 0.000000 0.000000 2.680819 0.072744 0.366775 1.723473 -9.296083 11.640747 1.335678 2.000315 -1.954194 1.337356 18.010504 63.133242 2.083150 24.809578 0.317509 0.000000 0.000000 0.000000 
0.808629 98.590782 -2.051632 0.000000 0.000000 0.000000 0.806211 -0.588643 0.482856 -17.617751 -2.915144 11.730963 21.717240 0.116193 -1.922361 -5.106637 10.303659 -6.301514 0.867500 -0.050232 -1.322957 0.000000 0.000000 0.000000 1.382090 -1.586925 0.683055 -17.905396 -1.704776 -12.469284 22.131128 0.760043 -1.673738 -2.475451 -11.303000 10.747817 -2.729545 0.577075 0.694793 0.000000 0.000000 0.000000 2.006760 -1.876975 0.288448 3.434869 0.044829 1.227792 3.315214 -0.003548 0.238506 1.026100 -0.298481 0.082277 0.000000 0.000000 0.000000 2.715429 0.105759 0.098192 -2.903156 -0.043429 0.043023 -0.096828 -0.500786 1.086246 0.000000 0.000000 0.000000 2.639052 0.116042 0.236941 1.222711 9.107554 -13.098156 -0.519699 -1.752873 -0.454698 11.998213 -7.042235 -53.214701 -0.242003 -32.412902 0.864620 0.000000 0.000000 0.000000 2.663536 0.007065 0.370406 1.749387 -8.813733 11.934637 1.289381 1.938747 -2.120481 1.141233 18.052750 62.760204 2.043246 24.206112 0.354540 0.000000 0.000000 0.000000 
1.611776 98.259735 -2.205643 0.000000 0.000000 0.000000 0.850900 -1.063702 0.582074 -18.854992 -2.866475 11.370662 23.244015 -0.261643 -2.053754 -5.374531 8.669717 -6.419685 0.843453 -0.125031 -0.967897 0.000000 0.000000 0.000000 1.404699 -1.877476 0.810259 -18.016386 -1.561586 -13.149082 22.154941 0.801695 -1.610508 -2.586336 -11.123988 11.286954 -2.582005 0.683574 0.285603 0.000000 0.000000 0.000000 2.159581 -2.163772 0.422540 3.575045 -0.137897 1.131107 3.189719 -0.070694 0.200476 0.930154 -0.233090 0.071827 0.000000 0.000000 0.000000 2.629840 0.034207 0.067169 -2.822327 0.140120 -0.091166 0.033650 -0.466503 1.195427 0.000000 0.000000 0.000000 2.550084 0.051296 0.218298 1.200139 8.484401 -13.031018 -0.494901 -1.412871 -0.356513 11.687643 -8.001740 -53.599377 -0.147896 -32.297458 0.836522 0.000000 0.000000 0.000000 2.593108 -0.081834 0.358969 1.770269 -8.071230 12.377809 1.171808 1.860329 -2.328615 0.841275 18.101977 62.191960 1.955875 23.373044 0.389568 0.000000 0.000000 0.000000 
